<?xml version="1.0" encoding="UTF-8"?>
<svg id="_レイヤー_2" data-name="レイヤー 2" xmlns="http://www.w3.org/2000/svg" xmlns:xlink="http://www.w3.org/1999/xlink" viewBox="0 0 708 237.01">
  <defs>
    <style>
      .cls-1 {
        fill: url(#_名称未設定グラデーション_12-5);
      }

      .cls-1, .cls-2, .cls-3, .cls-4, .cls-5, .cls-6, .cls-7, .cls-8, .cls-9, .cls-10, .cls-11, .cls-12, .cls-13, .cls-14, .cls-15, .cls-16, .cls-17, .cls-18, .cls-19, .cls-20, .cls-21, .cls-22, .cls-23, .cls-24, .cls-25, .cls-26, .cls-27, .cls-28, .cls-29, .cls-30, .cls-31, .cls-32, .cls-33, .cls-34, .cls-35, .cls-36, .cls-37, .cls-38, .cls-39, .cls-40, .cls-41, .cls-42, .cls-43, .cls-44, .cls-45, .cls-46, .cls-47, .cls-48, .cls-49, .cls-50, .cls-51, .cls-52, .cls-53, .cls-54 {
        stroke-width: 0px;
      }

      .cls-2 {
        fill: url(#_名称未設定グラデーション_12-4);
      }

      .cls-3 {
        fill: url(#_名称未設定グラデーション_12-8);
      }

      .cls-4 {
        fill: url(#_名称未設定グラデーション_12-9);
      }

      .cls-5 {
        fill: url(#_名称未設定グラデーション_12-2);
      }

      .cls-6 {
        fill: url(#_名称未設定グラデーション_12-3);
      }

      .cls-7 {
        fill: url(#_名称未設定グラデーション_12-6);
      }

      .cls-8 {
        fill: url(#_名称未設定グラデーション_12-7);
      }

      .cls-9 {
        fill: url(#_名称未設定グラデーション_12);
      }

      .cls-10 {
        fill: url(#linear-gradient);
      }

      .cls-10, .cls-11, .cls-12, .cls-13, .cls-14, .cls-15, .cls-16, .cls-17, .cls-18, .cls-19, .cls-20, .cls-21, .cls-22, .cls-23, .cls-24, .cls-25, .cls-26, .cls-27, .cls-28, .cls-29, .cls-30, .cls-31, .cls-32, .cls-33, .cls-34, .cls-35, .cls-36, .cls-37, .cls-38, .cls-39, .cls-40, .cls-41, .cls-42, .cls-43 {
        fill-rule: evenodd;
      }

      .cls-11 {
        fill: url(#linear-gradient-9);
      }

      .cls-12 {
        fill: url(#linear-gradient-8);
      }

      .cls-13 {
        fill: url(#linear-gradient-3);
      }

      .cls-14 {
        fill: url(#linear-gradient-2);
      }

      .cls-15 {
        fill: url(#linear-gradient-4);
      }

      .cls-16 {
        fill: url(#linear-gradient-5);
      }

      .cls-17 {
        fill: url(#linear-gradient-7);
      }

      .cls-18 {
        fill: url(#linear-gradient-6);
      }

      .cls-19 {
        fill: url(#linear-gradient-28);
      }

      .cls-20 {
        fill: url(#linear-gradient-29);
      }

      .cls-21 {
        fill: url(#linear-gradient-32);
      }

      .cls-22 {
        fill: url(#linear-gradient-25);
      }

      .cls-23 {
        fill: url(#linear-gradient-30);
      }

      .cls-24 {
        fill: url(#linear-gradient-33);
      }

      .cls-25 {
        fill: url(#linear-gradient-31);
      }

      .cls-26 {
        fill: url(#linear-gradient-34);
      }

      .cls-27 {
        fill: url(#linear-gradient-14);
      }

      .cls-28 {
        fill: url(#linear-gradient-11);
      }

      .cls-29 {
        fill: url(#linear-gradient-13);
      }

      .cls-30 {
        fill: url(#linear-gradient-10);
      }

      .cls-31 {
        fill: url(#linear-gradient-12);
      }

      .cls-32 {
        fill: url(#linear-gradient-15);
      }

      .cls-33 {
        fill: url(#linear-gradient-16);
      }

      .cls-34 {
        fill: url(#linear-gradient-17);
      }

      .cls-35 {
        fill: url(#linear-gradient-19);
      }

      .cls-36 {
        fill: url(#linear-gradient-23);
      }

      .cls-37 {
        fill: url(#linear-gradient-22);
      }

      .cls-38 {
        fill: url(#linear-gradient-18);
      }

      .cls-39 {
        fill: url(#linear-gradient-20);
      }

      .cls-40 {
        fill: url(#linear-gradient-21);
      }

      .cls-41 {
        fill: url(#linear-gradient-24);
      }

      .cls-42 {
        fill: url(#linear-gradient-27);
      }

      .cls-43 {
        fill: url(#linear-gradient-26);
      }

      .cls-44 {
        fill: url(#_名称未設定グラデーション_12-16);
      }

      .cls-45 {
        fill: url(#_名称未設定グラデーション_12-13);
      }

      .cls-46 {
        fill: url(#_名称未設定グラデーション_12-14);
      }

      .cls-47 {
        fill: url(#_名称未設定グラデーション_12-17);
      }

      .cls-48 {
        fill: url(#_名称未設定グラデーション_12-15);
      }

      .cls-49 {
        fill: url(#_名称未設定グラデーション_12-11);
      }

      .cls-50 {
        fill: url(#_名称未設定グラデーション_12-12);
      }

      .cls-51 {
        fill: url(#_名称未設定グラデーション_12-10);
      }

      .cls-53 {
        fill: #e50012;
      }

      .cls-54 {
        fill: #fff;
      }
    </style>
    <linearGradient id="linear-gradient" x1="356.23" y1="223.22" x2="407.64" y2="176.45" gradientUnits="userSpaceOnUse">
      <stop offset="0" stop-color="#200000"/>
      <stop offset="1" stop-color="#e50012"/>
    </linearGradient>
    <linearGradient id="linear-gradient-2" x1="361.73" y1="229.83" x2="414.5" y2="181.81" xlink:href="#linear-gradient"/>
    <linearGradient id="linear-gradient-3" x1="373.49" y1="242.21" x2="424.91" y2="195.43" xlink:href="#linear-gradient"/>
    <linearGradient id="linear-gradient-4" x1="371.31" y1="239.76" x2="422.7" y2="193" xlink:href="#linear-gradient"/>
    <linearGradient id="linear-gradient-5" x1="377.38" y1="246.49" x2="428.8" y2="199.7" xlink:href="#linear-gradient"/>
    <linearGradient id="linear-gradient-6" x1="371.57" y1="240.09" x2="422.98" y2="193.31" xlink:href="#linear-gradient"/>
    <linearGradient id="linear-gradient-7" x1="375.98" y1="244.83" x2="427.35" y2="198.09" xlink:href="#linear-gradient"/>
    <linearGradient id="linear-gradient-8" x1="360.49" y1="227.89" x2="411.86" y2="181.15" xlink:href="#linear-gradient"/>
    <linearGradient id="linear-gradient-9" x1="374.61" y1="243.13" x2="425.95" y2="196.42" xlink:href="#linear-gradient"/>
    <linearGradient id="linear-gradient-10" x1="374.57" y1="243.41" x2="425.98" y2="196.62" xlink:href="#linear-gradient"/>
    <linearGradient id="linear-gradient-11" x1="368.21" y1="236.46" x2="419.68" y2="189.63" xlink:href="#linear-gradient"/>
    <linearGradient id="linear-gradient-12" x1="374.61" y1="243.39" x2="426" y2="196.63" xlink:href="#linear-gradient"/>
    <linearGradient id="linear-gradient-13" x1="362.95" y1="230.55" x2="414.3" y2="183.83" xlink:href="#linear-gradient"/>
    <linearGradient id="linear-gradient-14" x1="367.11" y1="235.29" x2="418.63" y2="188.41" xlink:href="#linear-gradient"/>
    <linearGradient id="linear-gradient-15" x1="363.05" y1="230.71" x2="414.43" y2="183.95" xlink:href="#linear-gradient"/>
    <linearGradient id="linear-gradient-16" x1="361.56" y1="229.09" x2="412.99" y2="182.3" xlink:href="#linear-gradient"/>
    <linearGradient id="linear-gradient-17" x1="376.36" y1="244.95" x2="427.67" y2="198.26" xlink:href="#linear-gradient"/>
    <linearGradient id="linear-gradient-18" x1="378.07" y1="246.96" x2="429.41" y2="200.24" xlink:href="#linear-gradient"/>
    <linearGradient id="linear-gradient-19" x1="364.96" y1="234.6" x2="419.57" y2="184.92" xlink:href="#linear-gradient"/>
    <linearGradient id="linear-gradient-20" x1="366.11" y1="234.08" x2="417.51" y2="187.31" xlink:href="#linear-gradient"/>
    <linearGradient id="linear-gradient-21" x1="360.76" y1="228.22" x2="412.19" y2="181.42" xlink:href="#linear-gradient"/>
    <linearGradient id="linear-gradient-22" x1="368.51" y1="236.79" x2="419.97" y2="189.96" xlink:href="#linear-gradient"/>
    <linearGradient id="linear-gradient-23" x1="376.25" y1="244.91" x2="427.55" y2="198.23" xlink:href="#linear-gradient"/>
    <linearGradient id="linear-gradient-24" x1="368.76" y1="236.98" x2="420.15" y2="190.22" xlink:href="#linear-gradient"/>
    <linearGradient id="linear-gradient-25" x1="426.65" y1="217.41" x2="431.17" y2="213.29" xlink:href="#linear-gradient"/>
    <linearGradient id="linear-gradient-26" x1="385.42" y1="255.29" x2="436.82" y2="208.52" xlink:href="#linear-gradient"/>
    <linearGradient id="linear-gradient-27" x1="367.39" y1="235.45" x2="418.75" y2="188.71" xlink:href="#linear-gradient"/>
    <linearGradient id="linear-gradient-28" x1="366.64" y1="234.69" x2="418.1" y2="187.86" xlink:href="#linear-gradient"/>
    <linearGradient id="linear-gradient-29" x1="374.85" y1="243.91" x2="426.38" y2="197.03" xlink:href="#linear-gradient"/>
    <linearGradient id="linear-gradient-30" x1="376.46" y1="245.22" x2="427.75" y2="198.55" xlink:href="#linear-gradient"/>
    <linearGradient id="linear-gradient-31" x1="361.31" y1="228.81" x2="412.71" y2="182.04" xlink:href="#linear-gradient"/>
    <linearGradient id="linear-gradient-32" x1="369.26" y1="237.27" x2="420.6" y2="190.56" xlink:href="#linear-gradient"/>
    <linearGradient id="linear-gradient-33" x1="376.41" y1="244.83" x2="427.53" y2="198.32" xlink:href="#linear-gradient"/>
    <linearGradient id="linear-gradient-34" x1="364.52" y1="232.38" x2="416.01" y2="185.53" xlink:href="#linear-gradient"/>
    <linearGradient id="_名称未設定グラデーション_12" data-name="名称未設定グラデーション 12" x1="428.94" y1="97.83" x2="491.79" y2="63.67" gradientUnits="userSpaceOnUse">
      <stop offset="0" stop-color="#000"/>
      <stop offset="1" stop-color="#e50012"/>
    </linearGradient>
    <linearGradient id="_名称未設定グラデーション_12-2" data-name="名称未設定グラデーション 12" x1="452.51" y1="141.18" x2="515.36" y2="107.03" xlink:href="#_名称未設定グラデーション_12"/>
    <linearGradient id="_名称未設定グラデーション_12-3" data-name="名称未設定グラデーション 12" x1="421.38" y1="81.84" x2="484.23" y2="47.69" xlink:href="#_名称未設定グラデーション_12"/>
    <linearGradient id="_名称未設定グラデーション_12-4" data-name="名称未設定グラデーション 12" x1="413.46" y1="67.27" x2="476.31" y2="33.12" xlink:href="#_名称未設定グラデーション_12"/>
    <linearGradient id="_名称未設定グラデーション_12-5" data-name="名称未設定グラデーション 12" x1="252.55" y1="13.97" x2="308.53" y2="48.46" xlink:href="#_名称未設定グラデーション_12"/>
    <linearGradient id="_名称未設定グラデーション_12-6" data-name="名称未設定グラデーション 12" x1="262.21" y1="-1.71" x2="318.19" y2="32.78" xlink:href="#_名称未設定グラデーション_12"/>
    <linearGradient id="_名称未設定グラデーション_12-7" data-name="名称未設定グラデーション 12" x1="253.64" y1="12.19" x2="309.62" y2="46.69" xlink:href="#_名称未設定グラデーション_12"/>
    <linearGradient id="_名称未設定グラデーション_12-8" data-name="名称未設定グラデーション 12" x1="225.63" y1="57.66" x2="281.61" y2="92.15" xlink:href="#_名称未設定グラデーション_12"/>
    <linearGradient id="_名称未設定グラデーション_12-9" data-name="名称未設定グラデーション 12" x1="234.64" y1="43.04" x2="290.61" y2="77.53" xlink:href="#_名称未設定グラデーション_12"/>
    <linearGradient id="_名称未設定グラデーション_12-10" data-name="名称未設定グラデーション 12" x1="240.96" y1="32.77" x2="296.93" y2="67.26" xlink:href="#_名称未設定グラデーション_12"/>
    <linearGradient id="_名称未設定グラデーション_12-11" data-name="名称未設定グラデーション 12" x1="0" y1="105.58" x2="386.59" y2="105.58" xlink:href="#_名称未設定グラデーション_12"/>
    <linearGradient id="_名称未設定グラデーション_12-12" data-name="名称未設定グラデーション 12" x1="240.71" y1="130.08" x2="279" y2="95.24" xlink:href="#_名称未設定グラデーション_12"/>
    <linearGradient id="_名称未設定グラデーション_12-13" data-name="名称未設定グラデーション 12" x1="258.36" y1="137.45" x2="299.28" y2="100.21" xlink:href="#_名称未設定グラデーション_12"/>
    <linearGradient id="_名称未設定グラデーション_12-14" data-name="名称未設定グラデーション 12" x1="277.42" y1="147.1" x2="318.99" y2="109.28" xlink:href="#_名称未設定グラデーション_12"/>
    <linearGradient id="_名称未設定グラデーション_12-15" data-name="名称未設定グラデーション 12" x1="296.27" y1="153.12" x2="334.55" y2="118.28" xlink:href="#_名称未設定グラデーション_12"/>
    <linearGradient id="_名称未設定グラデーション_12-16" data-name="名称未設定グラデーション 12" x1="312.13" y1="163.1" x2="354.55" y2="124.5" xlink:href="#_名称未設定グラデーション_12"/>
    <linearGradient id="_名称未設定グラデーション_12-17" data-name="名称未設定グラデーション 12" x1="331.49" y1="173.41" x2="374.14" y2="134.61" xlink:href="#_名称未設定グラデーション_12"/>
  </defs>
  <g id="_レイヤー_1-2" data-name="レイヤー 1">
    <g>
      <g>
        <path class="cls-10" d="m444.54,111.41c-.21.02-.43.04-.62-.02-1.17-.38-2.28-.17-3.39.27-1.7-.72-3.4.02-5.09-.07-.11.42-.19.73-.31,1.2-.21-.34-.32-.52-.4-.63-.42.05-.76.1-1.11.12-.49.03-1,0-1.49.05-.57.06-1.14.32-1.69.27-.57-.05-.95.13-1.29.49-.42.44-.84.88-1.47.29-.06-.05-.2-.06-.28-.03-.56.23-1.16.4-1.66.73-.89.58-1.18.49-1.41-.59-.01-.05-.08-.09-.23-.25-1.36.34-2.79.7-4.39,1.1.36.1.54.14.84.22-.37.41-.67.76-1,1.14-1.05-.61-1.98-.09-2.92.27.05.25.1.51.18.9-.4-.23-.67-.38-.94-.53-.21.38-.43.77-.56,1.02-.66.1-1.18.1-1.64.28-.51.2-.93.23-1.36-.12-.04-.03-.12,0-.24,0-.11.14-.24.31-.44.57-.37-.35-.71-.68-1.04-1-.24.22-.4.48-.62.56-.6.23-1.22.39-1.84.57-.47.14-.98.21-1.39.45-.72.41-1.37.93-2.04,1.4-.13.09-.26.22-.4.25-1.14.22-1.96,1.12-3.07,1.44-.46.13-.85.73-1.27.73-.61,0-.73.27-.95.7-.35.7-1.62,1.31-2.33.73-.7-.58-1.56-.82-2.29-1.32-.63-.44-1.27-.28-1.84.38.75.3.82.93.78,1.62-.02.39-.18.59-.61.53-.8-.12-1.6-.22-2.4-.31-.25-.03-.53-.03-.78.02-.79.19-1.46.69-2.26.9-.15.04-.24.31-.45.6.85.06,1.18.5,1.22,1.15.04.79-.23,1.43-1.04,1.72.41.85.27,1.33-.58,1.55-.75.2-1.1.79-1.61,1.27.55.55,1.05,1.03,1.53,1.54.29.3.44.63,1.01.68.58.05,1.18.46,1.4,1.08.21.57.6.78,1.14.88.17.81.2,1.67.84,2.31.41-.04.68-.65,1.19-.22-.02.58.17,1.11.68,1.48.59.43,1.19.86,1.8,1.3-.13.45-.25.9-.37,1.34.75.57,1.5,1.12,2.24,1.69.3.23.61.45.88.72,1.03,1,2.19,1.8,3.46,2.47,1.32.69,2.73,1.18,4.11,1.74.78.32,1.52.03,2.26.15.1.02.22-.11.33-.19.23-.16.46-.34.69-.5,1.37-.96,2.73-1.91,4.1-2.86.05-.03.08-.1.12-.15.84-.8,1.72-1.54,2.8-1.99.21-.08.39-.23.57-.36.54-.4,1.05-.83,1.61-1.19,1.14-.73,2.3-1.43,3.46-2.14.16-.1.36-.14.54-.2.89-.29,1.82-.5,2.67-.88,1.66-.75,3.28-1.6,5.08-2.02,1.31-.31,2.56-.81,3.87-1.12,1.4-.34,2.85-.49,4.25-.84,1.55-.38,3.18-.31,4.7-.89.12-.04.26,0,.39-.02,1.56-.22,3.14-.4,4.69-.67.76-.14,1.5-.24,2.28-.19.98.06,1.96-.29,2.96-.2.17.02.34-.2.52-.22.22-.03.45.03.79.06-.67.56-1.21,1-1.74,1.43-.03.02-.06.03-.09.05-1.33.53-2.45,1.4-3.65,2.16-.17.11-.44.23-.61.18-.42-.12-.6.15-.83.37-.13.12-.24.33-.38.37-1.16.25-1.96,1.09-2.88,1.72-1.11.76-2.13,1.63-3.21,2.42-2.14,1.56-4.29,3.12-6.45,4.65-1.34.95-2.74,1.81-4.08,2.75-1.22.85-2.44,1.7-3.57,2.65-1.11.94-2.19,1.92-3.38,2.78-.97.7-1.89,1.48-2.79,2.27-.88.77-1.78,1.52-2.71,2.23-.33-.04-.66-.09-1.03-.14.23.91.18,1.04-.56,1.47-.99.56-1.82,1.44-3.05,1.46,0,.22,0,.31,0,.4.07,1.07.05,1.11-.94,1.52-.21.09-.43.14-.63.23-.14.06-.3.14-.39.25-.26.33-.49.67-.74,1.04.11.22.19.47.34.67.15.18.37.3.54.44-.15.56-.38.95-.92,1.1-.48.13-.71.49-.81.99-.06.32-.28.61-.45.9-.28.47.06,1.91.54,2.11.16.07.39.06.56,0,.2-.08.38-.24.54-.39.72-.67,1-.71,1.69,0,.37.37.78.27,1.17.29.36.02.47-.25.55-.56.03-.13.19-.25.32-.34.96-.7,1.9-1.42,2.88-2.08,1.01-.68,2.09-1.28,3.11-1.96,1.04-.69,2.05-1.45,3.09-2.16.68-.46,1.38-.91,2.08-1.34.2-.12.44-.18.64-.3.84-.54,1.66-1.11,2.52-1.62,1.52-.92,3.04-1.85,4.6-2.69,1.51-.81,3.06-1.55,4.63-2.23,1.39-.6,2.82-1.12,4.25-1.6.88-.3,1.8-.56,2.72-.66,1.28-.15,2.59-.61,3.87,0,.89.42,1.97-.46,2.79.4.01.01.06,0,.1,0,.68-.05,1.36-.14,2.05-.15.91-.02,1.9-.21,2.72.07.84.28,1.66.55,2.53.71.84.16,1.7.31,2.5.61.61.24,1.2.65,1.67,1.11.4.4.15.95-.04,1.42-.05.12-.04.26-.06.39-.11.75-.21,1.49-.54,2.19-.15.31-.16.68-.24,1.02-.04.18-.08.36-.16.53-.17.34-.37.67-.56.99.53.61.52.82.13,1.34-.78,1.05-1.54,2.12-2.3,3.19-.27.38-.48.83-.81,1.15-.38.36-.87.6-1.3.89.07.35.1.64.18.91.11.34-.01.65-.28.75-.81.29-.76.99-.84,1.62-.05.38-.05.77-.07.99-.41.37-.69.67-1.02.9-.59.41-.59,1.32-1.37,1.56-.05.02-.04.19-.09.26-.12.18-.23.38-.39.51-.38.3-.76.6-1.18.82-.73.4-1.36,1.14-2.35.79-.09-.03-.25.14-.39.23.17.14.3.25.51.43-.97.31-1.82.58-2.75.88.42.69.18,1.09-.35,1.38-.47.26-.93.52-1.39.78.09,1.02-.06,1.15-.93.92-.65.35-1.22.66-1.84.99,1.02.15,1.56-.05,2.06-.82.58.75,1.13,1.47,1.82,2.38-1.56.14-2.58,1.2-3.9,1.45.52.46,1.09.82,1.44,1.34.25.36.41,1.05.22,1.4-.37.69-1,1.33-1.79,1.52-1.08.26-1.78,1.09-2.79,1.46.12.28.2.47.3.69-.92.05-1.53.56-2.12,1.12-.42.4-.83.81-1.5.71-.11-.02-.28.1-.38.19-.52.52-1.11.82-1.88.8-.66-.01-1.14.37-1.53.81.28.13.51.23.73.33,0,0,0,.01,0,.02h.04l-.03-.03c.57.14.43.53.18.78-.34.33-.79.54-1.17.83-.37.29-.96.13-1.22.57-.42.71-1.13.99-1.82,1.31-.64.3-1.3.54-1.93.85-.28.14-.5.46-.78.54-1,.29-2.02.51-3.08.76-.12.47-.53.58-1.03.59-.67.01-1.38.06-1.9.54-.57.51-1.14.82-1.92.65-.28-.06-.6-.03-.87.06-.7.24-1.39.5-2.06.81-1.14.53-2.23,1.18-3.41,1.61-.74.27-1.19.66-1.38,1.24-.87.35-1.66.65-2.43.96-1.05.42-1.7,1.51-2.88,1.75-.15.03-.28.33-.37.53-.09.19-.12.42-.17.62-.36-.07-.67-.12-.98-.17-.08.27-.13.48-.14.51-1.22.6-2.29,1.16-3.38,1.66-.88.4-1.6,1.03-2.43,1.49-.56.3-1.18.5-1.72.85-.27.19-.68.23-1.02.24-.43.01-.69.21-.99.49-.58.52-1.23.97-1.87,1.44-.07.05-.19.04-.29.03-.59-.07-1.05.21-1.54.49-.47.27-.98.62-1.55.31-.53-.29-1.14-.52-1.23-1.29-.03-.33-.34-.61-.49-.94-.14-.28-.41-.67-.32-.84.27-.47-.03-.69-.31-.83-.31-.16-.69-.43-1.12.04.24.26.46.51.7.77-.07.13-.15.26-.25.43-1.13-.39-.63-1.5-1.16-2.2q.61.11,1.13-.2c-.66-.73-1.1-1.6-1.88-2.24-.48.59.3.83.19,1.42-.3-.09-.58-.17-.72-.2,0-.51-.05-.84.01-1.15.07-.35.24-.68.42-1.15,0,0-.04-.16-.1-.31-.08-.17-.17-.33-.25-.49-.89.34-1,.56-.72,1.28.08.2.27.49.2.6-.27.43.06.75.28,1.29-.46-.22-.74-.31-.95-.48-.19-.16-.29-.41-.42-.61-.12.11-.24.31-.35.3-.17-.01-.39-.13-.47-.26-.23-.37-.4-.78-.52-1.03-.41-.12-.69-.2-.97-.28-.51.79.39,1.55.16,2.32h-1.62c.03,1.08-.66,1.15-1.43,1.05-.01.25-.02.42-.03.62h-.45c-.04-.25-.03-.53-.16-.73-.1-.15-.4-.29-.55-.25-.14.04-.3.35-.28.52.12,1.05.57,1.41,1.64,1.37.34.49.77.92.83,1.59.03.32.35.61.56.9.28.37.52.1.73-.08.13.15.24.28.42.48.2-.34.36-.59.54-.91.12.38.19.64.3.9.11.29.25.56.4.88-.28.09-.46.19-.64.18-.26-.01-.5-.45-.76-.11-.16.2-.14.53-.23.79-.06.18-.16.33-.33.68.68-.26,1.16-.44,1.63-.63,0-.35.23-.38.54-.38.22.57.84.97.71,1.75-.43.28-1.04.42-1.15,1.05-.13.73-.67,1.05-1.25,1.35-.56.3-1.55.02-1.83-.57-.25-.51-.41-1.06-.62-1.59-.06-.13-.16-.29-.28-.34-.26-.1-.54-.17-.82-.19-.7-.04-.86-.19-1.03-.85-.17-.65-.46-1.25-.96-1.66-.27.19-.49.35-.72.51-.09.23-.25.47-.24.7.05.54.14,1.09.3,1.61.25.86.52,1.73.89,2.55.15.33.56.75.86.74.46,0,.68.2.85.49.26.47.45.97.67,1.46-.34.35-.66.74-.58,1.01.36,1.31.72,2.63,1.5,3.77.09.13.33.16.52.25.14-.52.24-.9.33-1.26.33-.01.54-.02.75-.03q0-1.13.59-1.32c.18,1.32.8,2.52.77,3.88-.01.51.12,1.03.25,1.52.09.36.44.38.72.31.21-.05.56-.24.56-.37.02-.48.21-1.01-.23-1.44-.11-.11-.1-.32-.19-.61.49.16.84.27,1.33.43.13.65.27,1.36.43,2.15.35.31.79.72,1.35,1.22.15-.49.29-.94.43-1.39.48.11.55.89,1.16.57.14-1.42.18-1.48.94-1.44.03.21.06.43.09.62.49.08.74-.09.53-.52-.22-.46.06-.67.31-1.08.11.45.19.76.3,1.23.27-.57.83-.15,1.22-.67.29-.4.8.21,1.16.5.12.09.2.3.31.3.69.01,1.39-.01,2.09-.02.23,0,.51-.08.66.03.5.36.96.19,1.48.08,1.05-.21,1.43-.47,1.89-1.43.03-.07.19-.09.22-.15.26-.64.84-.58,1.35-.6.33-.77.34-.75,1.04-.62.3.06.63,0,.95-.01.03,0,.06-.1.1-.17-.12-.08-.24-.16-.31-.21-.09-.38.64-.38.31-.85.35-.14.69-.27,1.03-.4-.66-.32-1.47-.05-2.01-.73.61-.22,1.19-.44,1.76.15v-.65c.41.03.8.05,1.37.08-.39.28-.62.45-.86.62.36.11.69.33.94.26.51-.13.97-.41,1.48-.65-.23-.1-.45-.2-.79-.35.52-.25.91-.42,1.28-.61.43-.22.85-.46,1.28-.69.38-.21.84-.35,1.1-.66.31-.37.93-.11,1.1-.69.14-.5.75-.27,1.1-.59.3-.27.79-.33.97-.91-1.24.12-2.39.24-3.65.36.54-.4.94-.7,1.34-1,.19.13.39.36.55.35.91-.09,1.82-.24,2.72-.4.1-.02.18-.17.25-.25-.12-.22-.23-.42-.32-.6.42-.21.79-.49,1.21-.6.42-.1.79-.42,1.34-.15.35.17,1.04.05,1.36-.21.9-.72,1.99-.93,2.96-1.4.15.14.28.26.53.49-.14-.47-.23-.78-.37-1.24.57.21.99.37,1.41.53.02-.05.04-.1.06-.15-.22-.13-.45-.26-.85-.5.45-.04.69-.06.93-.09-.14-.63-.13-.67.21-.93.16.27.31.53.54.94,0-.32-.05-.56.01-.59.73-.38,1.31-1,2.13-1.2.33-.08.67-.17.96-.35.52-.31.97-.82,1.66-.4.06.04.22-.12.34-.12.73-.02.99-.74,1.58-.96-.12-.17-.18-.27-.29-.43.18,0,.26-.02.31,0,.72.46.72.46,1.02-.28.06-.15.09-.31.16-.46.16-.34.42-.5.8-.4h0c.39,0,.8.07,1.14-.04,1.35-.43,2.57-1.12,3.76-1.88.52-.33.94-.79,1.64-.69.14.02.32-.08.46-.15.71-.39,1.37-.9,2.12-1.15.96-.33,1.63-1.41,2.84-1.1.76-.37,1.53-.72,2.26-1.13.32-.18.54-.55.86-.76,1.11-.72,2.25-1.38,3.36-2.09.7-.45,1.27-1.07,2.11-1.37.66-.24,1.21-.79,1.82-1.18.94-.62,1.93-1.18,2.83-1.85,1.03-.75,2.08-1.5,2.97-2.43.22-.22.54-.35.8-.53.94-.63,1.94-1.19,2.78-1.92,1.12-.98,2.1-2.06,3.39-2.88,1.29-.82,2.33-2.05,3.47-3.11.2-.19.33-.47.54-.64.7-.54,1.41-1.07,1.91-1.82.09-.14.29-.21.39-.35.4-.57,1.41-.61,1.31-1.59.33-.06.61-.11.92-.17-.03-.22-.06-.42-.09-.64.59.1.57.08.86-.21.48-.5,1-.98,1.59-1.56-.13-.62.41-1.07.9-1.53.52-.48,1.08-.92,1.62-1.38-.05-.19-.1-.34-.14-.46.23-.15.52-.25.66-.45.39-.54.74-1.1,1.06-1.69.32-.59,1.2-.73,1.24-1.54.58-.04.61-.59.69-.93.09-.38.28-.58.54-.82.41-.37.9-.67,1.06-1.27.05-.18.2-.34.35-.46.85-.75,1.63-1.54,1.61-2.8,0-.11.09-.23.16-.34.49-.78.71-1.64.77-2.54.04-.58,0-1.16,0-1.76.61-.3.61-.31.42-.95-.13-.41-.41-.83,0-1.25.02-.03-.02-.12-.03-.18-.2-.15-.4-.31-.64-.49.29-.36.43-.66.32-1.15-.13-.53-.06-1.16.52-1.5-.25-1.76-1.16-3.24-1.77-4.84-.23-.58-.54-1.1-1.04-1.39-.3.05-.57.17-.8.11-.52-.13-1.02-.35-1.58-.55-.37.4-.91.59-1.41.23-.62-.44-.45-1.13-.38-1.83.31.05.56.1.78.14-.18-.21-.33-.48-.55-.62-.24-.16-.55-.21-.83-.3-.09-.72.54-.28.91-.51-.22-.25-.39-.44-.63-.73-.29.39-.53.67-.74.98-.25.36-.57.55-1,.39-.47-.18-.93-.41-1.38-.61-.4-1.06-.32-2.32-1.42-3.01-.1-.06-.14-.21-.21-.32-.09-.12-.17-.28-.29-.35-.48-.25-1-.44-1.47-.72-.46-.27-.91-.58-1.29-.95-.17-.16-.23-.52-.19-.77.05-.37.37-.36.69-.29.44.1.9.15,1.34.26.75.2.94.13,1.54-.67-.22-.02-.39-.03-.56-.05-.22-.03-.44-.07-.66-.12-.85-.18-1.14-.81-.85-1.62.2-.56.36-1.09.98-1.35.11-.05.13-.29.21-.43.02-.03.1-.02.15-.03.03.09.05.18.08.28.29.08.63-.47.91.1-.17.19-.36.39-.55.59.21.08.34.07.44.02.62-.34.97-.92,1.34-1.49.13-.19.35-.42.56-.45,1.35-.21,2.72-.37,4.04-.54.02-.36.04-.7.07-1.13-.45.41-.92.51-1.44.36q.18-.78.72-1.19c-.67-.38-.72-.71-.13-1.05.21-.13.48-.16.73-.19.42-.05.81-.14,1.11-.59-.28-.26-.8-.56-.76-.72.16-.65-.51-.45-.62-.74-.11-.27-.39-.56-.08-.88,1.2.17,1.28.12,1.53-.84-.45-.57-.88-1.09-1.32-1.64.1-.17.2-.34.32-.54-.27-.02-.48-.03-.77-.05.1-.33.19-.56.23-.8.04-.21.11-.47.02-.65-.23-.46-.46-.96-.82-1.31-.7-.68-1.26-1.51-2.16-2-.35-.19-.56-.64-.85-.96-.26-.28-.52-.57-.83-.8-.78-.58-1.39-1.38-2.34-1.72-.09-.03-.18-.09-.24-.17-.45-.54-1.01-.78-1.72-.72-.12,0-.28,0-.36-.06-.76-.67-1.76-1.04-2.39-1.89-.12-.17-.38-.23-.54-.39-.6-.59-1.52-.88-1.69-1.88-.92-.03-1.66-.35-2.19-1.08-.1-.13-.16-.31-.28-.38-.46-.26-1.01-.75-1.42-.67-1.29.26-2.34-.02-3.31-.85-.09-.08-.23-.13-.35-.15-.43-.08-.87-.13-1.31-.21-.69-.14-1.38-.29-2.07-.45-.93-.22-1.85-.46-2.78-.69-.47-.12-.93-.3-1.4-.3-.6,0-1.21.22-1.7-.32-.04-.05-.19-.03-.28,0-.6.12-1.2.3-1.8.36-.46.04-1.13.09-1.37-.17-.43-.45-.82-.37-1.29-.32Zm-65.91,102.58s.15-.16.22-.25c.13.14.26.28.39.42-.07.08-.15.15-.22.22-.14-.13-.28-.25-.39-.39Zm20.69,17.04h-.89c.39-.35.62-.37.89,0Zm1.49-2.71c-.21.02-.42.05-.63.07-.01-.08-.02-.16-.03-.24.2-.04.41-.07.61-.11.02.09.03.18.05.28Zm6.13-1.55c-.19.12-.4.22-.6.33-.03-.05-.06-.11-.1-.17.2-.14.4-.27.64-.44.03.13.08.26.06.28Zm-.44-.84c-.52.33-.88.45-1.42.39.37-.55.79-.45,1.42-.39Zm4.36-1.88c0,.08,0,.16,0,.24-.8.54-1.79.14-2.72.54.15-.57.5-.71.94-.67.38.03.77.33,1.09-.18.05-.09.45.04.69.07Zm-14.31-3.12c-.23.41-.43.72-.6,1.05-.38.72-1.13.97-1.95.74-.33-.08-.71.04-1.09.08.02.22.03.31.04.4,0,.06.02.13.03.26-.21,0-.43.04-.62-.01-.4-.1-.61-.34-.37-.83.45-.02.79-.27,1.16-.62.7-.68,1.56-1.19,2.44-1.82.34.27.68.54.97.77Zm29.13-3.56c-.1.14-.24.24-.37.37-.08-.07-.15-.14-.23-.22.13-.14.27-.28.4-.42.07.09.22.24.2.27Zm55.11-85.79c-.46.33-.83.59-1.27.91v-1.07c.4.05.75.09,1.27.16Zm-66.11-13.33c.16.17.08.56.11.82-1.02.3-1.93.57-3,.89.53-.64.93-1.14,1.42-1.73.39-.03.96-.53,1.47.02Z"/>
        <path class="cls-14" d="m372.63,219.93s0,0,0,0c-.01,0-.03,0-.04,0,0,0,0,.02.01.03h0s.02,0,.02-.01c0,0,0-.01,0-.02h0Z"/>
        <path class="cls-13" d="m425.16,195.95c.79-.18,1.43-.61,2.14-.94-.63-.15-1.16.09-1.71.34-.72.33-1.53.46-2.21.83-.48.26-.94.36-1.45.4-.11.01-.21.08-.39.15.62.62,1.2.31,1.73.09.64-.26,1.23-.73,1.89-.87Z"/>
        <path class="cls-15" d="m417.61,199c-.95-.31-1.7-.11-2.44.11-1.09.31-1.64.7-1.67,1.11.61-.14,1.16-.34,1.71-.36.87-.04,1.49-.6,2.4-.85Z"/>
        <path class="cls-16" d="m431.79,197.35c-.41-.18-.78-.09-1.1.03-.67.27-1.31.64-2.12,1.06.94-.01,1.72.08,2.4-.45.28-.21.56-.33.9-.18.52.24.77-.02.92-.47-.34.02-.72.13-.99.01Z"/>
        <path class="cls-18" d="m419.73,197.51c-.68.13-1.36.31-2.05.37-.47.04-.97-.08-1.46-.13,0,.07-.02.14-.03.21,1.29.81,2.96.59,4.27-.66-.34.1-.53.18-.73.21Z"/>
        <path class="cls-17" d="m451.48,176.95c-1.6-.4-1.77-.34-2.33.97.39-.11.71-.17,1.01-.27.48-.16.75-.71,1.32-.7Z"/>
        <path class="cls-12" d="m372.05,216.8c-.36.19-.66.35-1.04.56.04.13.12.39.2.65.36.06.66.11,1.03.17q.29-1.05-.19-1.37Z"/>
        <path class="cls-11" d="m477.57,150.9c-.38-.15-.69-.27-1.08-.43.13-.32.19-.51.26-.67-.41-.04-.77-.08-1.22-.13.54.64,1.03,1.22,1.56,1.85.2-.26.33-.42.48-.61Z"/>
        <path class="cls-30" d="m478.1,148.2c.46.23.91.46,1.56.79-.26-.57-.42-.91-.58-1.24-.45-.09-.85-.12-.98.45Z"/>
        <path class="cls-28" d="m397.34,209.42c.04.08.08.16.12.23.67-.38,1.34-.77,2.16-1.24-1.11-.13-1.56.71-2.28,1Z"/>
        <path class="cls-31" d="m427.63,194.55c.46.25,1.08.05,1.97-.59-.8-.12-1.32.33-1.97.59Z"/>
        <path class="cls-29" d="m387.59,208.84c-.11-.17-.24-.37-.35-.54-.36.11-.64.2-.96.3.55.42,1.14.55,1.31.24Z"/>
        <path class="cls-27" d="m390.84,214.3c-.01-.09-.04-.16-.02-.21.04-.12.11-.22.2-.39-.74-.39-.91.12-1.24.52.43.03.75.06,1.07.08Z"/>
        <path class="cls-32" d="m376.63,217.75c-.16.48-.32.95-.53,1.57.83-.41.83-.95.53-1.57Z"/>
        <path class="cls-33" d="m371.91,219.02c.03.3.1.61.22.88.02.06.28.02.46.02-.15-.42-.29-.84-.46-1.31-.09.16-.23.29-.22.41Z"/>
        <path class="cls-34" d="m479.99,149.7c.41.39.72.69,1.03.99-.13-.5-.25-1.02-1.03-.99Z"/>
        <path class="cls-38" d="m482.45,152.85c-.09-.46-.34-.77-.77-1.03.18.86.27.98.77,1.03Z"/>
        <path class="cls-35" d="m380.06,220.87h0s0-.02,0-.02h0v.02h0Z"/>
        <path class="cls-39" d="m380.06,220.87c-.08.32-.17.64-.26.99.76-.18.8-.36.26-.99Z"/>
        <path class="cls-40" d="m377.73,213.19c.13-.3.24-.55.44-1q-.82.35-.44,1Z"/>
        <path class="cls-37" d="m401.81,206.71c-.32.07-.63.14-.94.21.02.08.04.16.06.24.31-.09.62-.18.93-.27-.01-.06-.03-.12-.04-.18Z"/>
        <path class="cls-36" d="m452.71,175.41c-.25.08-.51.17-.76.25.02.08.05.15.07.23.25-.08.51-.16.77-.24-.02-.08-.05-.16-.08-.24Z"/>
        <path class="cls-41" d="m390.43,217.79c-.11-.22-.23-.44-.34-.66-.08.05-.16.1-.25.15.13.21.26.42.39.63.06-.04.13-.08.19-.11Z"/>
        <path class="cls-22" d="m428.91,215.34h0s0,0,0,0Z"/>
        <path class="cls-43" d="m429.2,215.82c-.13-.2-.21-.33-.29-.46-.15.21-.31.43-.57.78.39-.14.62-.23.86-.31Z"/>
        <path class="cls-42" d="m392.09,212.92c.29-.09.64-.07.9-.56-.41.16-.68.27-.96.37.02.06.04.13.06.19Z"/>
        <path class="cls-19" d="m378.65,224.14c.07-.09.14-.18.21-.26-.15-.08-.31-.17-.46-.25-.01,0-.11.13-.1.14.11.13.24.26.36.38Z"/>
        <path class="cls-20" d="m423.2,200.14c-.2-.02-.4-.03-.6-.05,0,.03-.01.06-.02.09.1.03.2.07.31.09.1.01.21,0,.32,0v-.14Z"/>
        <path class="cls-23" d="m427.84,198.85c-.29-.46-.51-.4-.74,0h.74Z"/>
        <path class="cls-25" d="m373.06,217.89c-.08.02-.17.05-.25.06.07.18.15.35.22.52.04,0,.08-.03.12-.04-.03-.18-.06-.36-.09-.55Z"/>
        <path class="cls-21" d="m473.47,142.39c.16-.03.32-.06.47-.09-.02-.08-.03-.16-.05-.23-.16.05-.32.1-.47.15.02.06.03.12.05.18Z"/>
        <path class="cls-24" d="m426.64,199.4s0-.07,0-.11c-.18.02-.35.03-.53.05,0,.01,0,.03,0,.05h.53Z"/>
        <path class="cls-26" d="m378.54,219.55h.41c0-.08,0-.16,0-.24-.13,0-.27,0-.4,0-.01,0,0,.15,0,.23Z"/>
      </g>
      <g>
        <g>
          <path class="cls-52" d="m665.2,59.01c0-1.73-8.5-9.81-9.2-9.81-.39,0-.63.21-1.1,1.4l-2.25,5.39h-4.99c.23-3.01,1.41-18,1.71-21.34h4.91v3.23c0,1.73,0,2.7,1.87,2.48l5.69-.65c1.33-.11,1.49-.86,1.49-2.37v-20.48c3.5-1.83,3.9-2.05,3.9-3.23,0-1.51-9.05-10.35-9.82-10.35-.46,0-.55.22-1.09,1.4l-2.58,5.5h-17.54l.38,1.18h17.7v21.99h-4.29c-1.48-.65-6.71-2.16-9.75-2.7-.23,4.63-.93,17.36-2.34,29.32-.23,2.05-.32,2.59-.32,3.12,0,1.08.63,1.19,1.33,1.3l5.61.44c2.26.21,2.33-.54,2.96-7.66h5.92c-.23,4.64-1.25,22.64-2.73,27.06-.86,2.59-2.49,2.69-4.6,2.69-1.24,0-7.09-.43-8.42-.43v.43c6.24,2.59,7.41,3.77,7.56,10.88.08,4.32.08,5.29,2.42,5.29,11.54,0,12.79-11.1,14.73-41.28,2.57-1.94,2.81-2.15,2.81-2.8Zm1.33-18.65l13.65-4.85v13.16h-3.82c-2.26-.86-7.25-2.05-10.45-2.48v29.65c0,2.59.7,2.59,1.79,2.48l6.08-.65c1.33-.11,1.33-1.08,1.33-2.38v-5.82h19.33v3.13c0,1.94.47,2.26,1.79,2.15l5.77-.65c1.71-.21,1.71-1.08,1.71-2.69v-17.57c.94-.43,3.04-1.29,3.04-2.59,0-1.51-7.8-9.7-8.66-9.7-.39,0-.46.12-1.01,1.08l-3.04,6.04h-4.6v-10.45c1.48-.76,2.03-1.19,2.03-1.73,0-.75-.55-.86-1.02-.97-.47-.11-5.61-.53-8.26-.75,3.82-1.5,8.34-3.45,15.59-7.01,1.1,3.99,1.48,6.25,2.19,9.81.23,1.08.55,1.94,2.19,1.94,2.34,0,5.84-2.05,5.84-8.72,0-12.08-13.72-17.47-16.92-18.55l-.08.43c1.64,2.48,3.82,5.71,6.16,13.05l-21.21.86c4.21-5.71,7.25-10.35,11.77-17.89,2.34-.44,2.57-.44,2.57-1.19,0-1.4-11.46-4.21-13.25-4.64-.94,8.51-3.27,20.48-4.05,23.82l-9.36.43c.39,2.59,2.18,10.57,2.88,13.26Zm13.65,27.81h-5.07v-18.33h5.07v18.33Zm9.27-18.33h4.99v18.33h-4.99v-18.33Zm1.1,24.9l-.08.21c1.24,1.94,3.04,4.96,4.76,9.81l-32.83,3.45c.94,4.96,2.66,12.29,3.2,14.34,10.06-3.88,23.23-10.67,30.33-15.41,1.33,4.64,2.73,12.18,2.89,13.04.31,1.94.86,2.91,2.49,2.91.78,0,6.32-.32,6.32-8.41,0-12.18-13.41-18.21-17.07-19.94Z"/>
          <polygon class="cls-52" points="680.13 75.12 689.54 88.82 689.54 49.41 680.13 49.41 680.13 75.12"/>
        </g>
        <g>
          <polygon class="cls-52" points="587.63 86.38 597.59 107.08 597.59 57.73 587.63 35.75 587.63 86.38"/>
          <path class="cls-52" d="m573.23,41.39l5.68-.55c1.92-.21,2-.97,2-2.58v-2.7h31.69v2.91c0,1.73.16,1.73,1.52,1.62l6.32-.64c1.84-.22,1.84-1.3,1.84-3.24v-19.94c1.6-.87,3.2-1.62,3.2-3.24s-8.56-10.13-9.21-10.13c-.56,0-.88.54-1.52,1.73l-2.88,4.96h-30.41c-.56-.33-8-3.13-10.24-3.56v32.99c0,2.59.24,2.59,2,2.38Zm7.68-30.62h31.69v11h-31.69v-11Zm0,12.29h31.69v11.32h-31.69v-11.32Zm53.21,21.66c0-1.29-7.12-10.24-7.92-10.24-.48,0-.63.43-.96,1.08l-4.08,8.51h-61.62l.4,1.29h9.52v36.11c-1.43.22-8.56,1.3-9.44,1.41,1.84,7.76,2.09,8.63,3.6,14.56,6.62-3.87,18.24-11.27,24.34-16.55v-2.63l-9.06,1.6v-11.1h9.06v-1.18h-9.06v-10.46h12.91v-1.19h-12.91v-10.57h54.41c.32,0,.8,0,.8-.65Zm-15.76,36.23c3.52-6.26,5.84-12.61,7.84-19.62,1.12-.12,3.52-.33,3.52-1.95,0-1.83-8.33-10.57-8.97-10.57-.48,0-.63.33-1.36,1.52l-3.2,4.96h-17.69l.4,1.19h2.88c1.52,17.67,4.89,24.25,6.48,27.38-3.26,6.53-6.76,11.67-10.57,15.76v.83c3.96-1.93,8.76-4.32,14.33-10.66,6.64,8.51,15.53,11.64,16.33,11.64,1.59,0,1.75-1.83,1.84-3.02.08-1.29.4-6.46,4.8-10.99v-.22c-3.12-.64-9.61-1.94-16.65-6.25Zm-6.48-5.4c-5.77-6.89-7.85-14.34-9.21-19.07h14.08c-.96,6.25-1.6,10.24-4.88,19.07Z"/>
        </g>
        <g>
          <path class="cls-9" d="m520.61,52.51c5.5,12.59,27.79,21.49,43.48,21.24v.25c-3.2,2.16-5.7,7.25-6.1,11.44-.4,4.95-.5,6.49-2.5,6.49-.3,0-11.09-2.16-21.49-11.7,0,0-7.39-7.75-6.6-7.5-4-5.6-6.89-11.95-8.49-20.21h-2.5c-1.8,3.56-4.89,9.79-14.59,19.97,2.5.38,7.8,1.39,7.8,2.28,0,.76-1.1,1.28-2.7,1.91-.3,14.87-1,24.92-10.1,34.07-3.2,3.18-10.59,8.64-22.59,10.69v-.26c19.8-11.19,19.89-27.84,20.1-41.83-13,10.55-22.89,13.73-26.59,14.88v-.39c12.89-9.15,26.98-28.48,33.08-41.32h-8.99v3.81c0,1.53,0,2.29-1.2,2.42l-9.3.77c-1.7.13-1.8-.39-1.8-2.41V7.12c3.6,1.27,10.89,3.94,13.19,4.83h44.28l3.4-6.23c.7-1.28,1.5-2.55,2-2.55,1.2,0,12.29,10.56,12.29,12.33,0,1.41-1.1,2.29-4.89,3.69v36.88c0,2.67-.11,2.67-2.31,2.92l-7.79.77c-2.11.25-2.2-.25-2.2-2.8v-4.45h-16.89Zm-28.78-39.04v17.93h16.69V13.47h-16.69Zm16.69,37.51v-18.18h-16.69v18.18h16.69Zm11.99-37.51v17.93h16.99V13.47h-16.99Zm16.99,37.51v-18.18h-16.99v18.18h16.99Z"/>
          <polygon class="cls-5" points="532.07 109.89 519.63 134.32 519.63 89.07 532.07 68.33 532.07 109.89"/>
        </g>
        <g>
          <polygon class="cls-6" points="408.99 109.09 396.56 133.52 396.56 57.15 408.99 57.15 408.99 109.09"/>
          <path class="cls-2" d="m466.43,27.34c-.4,0-.6.51-1.1,1.4l-5.29,10.05h-2V8.78c2.9-.76,3.4-1.27,3.4-1.91s-.6-.89-1.2-1.01c-2.5-.64-13.7-2.29-14.59-2.42v35.35h-12.5V8.02c2.8-.76,3.2-.9,3.2-1.91,0-.51-.3-.76-.7-.89-2.5-.77-12.69-1.65-14.69-1.91v35.48h-11.59V8.4c3.19-.77,3.19-1.29,3.19-1.91,0-1.4-13.79-2.8-15.99-3.05v35.35h-14.49l.5,1.53h13.99v68.51h28.72v.02h45.34c.6,0,1.31,0,1.31-.88,0-1.15-11-13.1-11.7-13.1-.4,0-.6.51-1.2,1.52l-6.19,10.94h-43.47V40.31h11.59v53.91c0,1.79,0,3.05,2.1,2.8l8.2-.76c1.9-.13,1.9-1.66,1.9-3.56v-9.92h12.5v8.01c0,1.27.1,2.03,1.69,1.91l8.8-.64c1.8-.13,1.9-1.65,1.9-3.05v-48.7h16.59c.5,0,1,0,1-.89,0-1.27-8.29-12.08-9.19-12.08Zm-20.79,54.05h-12.5v-41.07h12.5v41.07Z"/>
        </g>
        <path class="cls-52" d="m28.94,84.83c9.21-3.2,15.3-6.68,15.3-19.13,0-2.68-.09-10.85-6.56-12.44.09,1.88-.14,3.48-.23,3.93-.61,4.11-3.07,9.31-5.54,13.08.84,3.02.93,3.37.93,4.17,0,2.23-2.56,3.32-3.12,3.32-1.3,0-1.91-1.83-2.19-2.74-1.81,1.71-6.04,5.25-8.56,5.25-2,0-2.42-1.31-2.98-2.8-.23-.57-1.44-3.03-1.63-3.54-.23-.63-.37-1.32-.37-2.4,0-3.82,1.68-7.36,2.84-9.3,3.12-5.14,7.12-7.2,9.49-8.4l.05-5.77c-2.14.74-2.79.91-3.81.91-4.56,0-6.42-5.08-7.4-7.76.88,1.03,1.81,2.11,3.49,2.11,1.25,0,6.05-1.32,7.72-1.77.05-5.88.05-6.91-1.81-6.91-.28,0-.47,0-.75.11.33-.8,1.16-2.91,3.81-2.91,1.81,0,3.86,1.6,3.86,3.2,0,.63-.51,4.4-.61,5.2,2.61-.75,2.89-.86,2.89-1.77,0-.23-.09-.4-.14-.57l.09-.12c.61.8.88.86,3.12,1.09.84.06,3.91.4,3.91,3.77,0,1.37-.28,2.11-2.18,2.34-3.63.4-4.47.51-8.28,1.77-.09,1.71-.19,4-.23,5.65,2.14-.63,3.86-.74,4.84-.8-.28-2.23-.65-2.97-1.07-3.83,1.26.63,3.12,1.66,3.67,3.88,8.23.68,12.61,8.34,12.61,15.82,0,2.63-.51,11.54-7.58,14.74-4.33,1.94-9.12,2.63-13.58,2.8v-.17Zm-10.32-13.65c0,1.14.28,1.94,1.44,1.94,1.39,0,4.79-2.4,6.65-4.11-.37-5.66-.37-8.28-.37-12.91-4.88,4.11-7.72,11.48-7.72,15.08Zm11.44-17.36c-.05,5.6.28,8.23.65,10.74.88-1.37,4.37-6.57,4.28-11.65-2.28-.06-3.86.46-4.93.91Z"/>
        <path class="cls-52" d="m57.07,85.26c7.35-1.82,12.7-5.19,12.7-23.12,0-1.14,0-10.45-1.31-13.48-.28-.63-.69-1.14-1.58-1.14-3.3,0-6.28,10.28-6.28,19.19,0,1.77.09,2.23.46,4,.14.57.14,1.02.14,1.08,0,1.37-1.26,2.46-2.79,2.46-3.95,0-4.7-7.48-4.7-13.19,0-6.22.88-9.53,3.95-18.67.6-1.83,1.77-5.31,1.77-6.96s-1.02-1.83-2.33-2c.65-.52,1.4-1.14,2.79-1.14,1.58,0,4.74.91,4.74,5.88,0,2.86-.79,4.28-1.44,5.42-3.02,5.2-5.86,10-5.86,17.71,0,.34.04,1.42.41,1.42.23,0,.28-.11.61-1.42,1.16-4.29,4.28-11.14,6.19-13.31,1.07-1.2,2.32-2,3.86-2,3.44,0,5.16,4.23,5.54,5.14,1.3,3.31,1.63,9.65,1.63,12.73,0,8.91-.75,17.13-11.26,20.5-3.63,1.14-6.14,1.08-7.26,1.08v-.17Z"/>
        <path class="cls-52" d="m103.19,62.38c8.05,0,14.98,7.02,14.98,12.56,0,2.97-1.44,4.74-3.86,4.74s-2.75-1.26-3.44-5.2c-.42-2.28-2-10.96-8.93-10.96-1.58,0-2.6.51-3.21.8,3.72,3.37,5.95,6.45,5.95,10.56,0,5.71-4.93,7.54-6.14,7.54q-.75,0-1.44-1.43c-1.02-2.11-6-5.2-7.81-6.11-3.07,5.31-5.07,8.68-7.81,8.68s-3.35-4.45-3.35-6.4c0-2.29,1.07-4.28,5.26-4.28,1.21,0,2.19.23,2.89.35,3.02-3.2,4.7-4.92,7.77-7.31-2.19-2.63-3.21-4.91-3.21-8.11,0-4.62,2.32-8.05,5.2-10.5,1.59-1.37,2.14-1.83,2.14-2.86s-.28-1.25-2.47-3.31c-2.14-2-2.93-3.66-3.67-6.05,2.28,1.77,2.83,1.94,6.6,3.2,4.23,1.37,6,3.26,6,6.74,0,2.97-1.16,5.2-2.6,5.2-.37,0-1.49-.63-2.28-1.03-.37-.23-.88-.46-1.95-.46-2.98,0-5.53,2.86-5.53,6.17s2.56,5.77,5.63,8.57c.98-.46,2.51-1.08,5.3-1.08Zm-20.51,13.3c0,.69.42,1.14.93,1.14.74,0,2.09-2.23,2.56-3.09-1.25.12-3.49.52-3.49,1.94Zm13.2.11c.65,0,2.84,0,2.84-2.63,0-1.83-.37-2.23-3.72-6.05-2.51,2.57-3.67,4.45-5.39,7.25,1.16.45,3.86,1.42,6.28,1.42Z"/>
        <path class="cls-52" d="m162.87,68.6c-2.28,8.62-4.79,10.91-9.26,10.91-4.79,0-6.79-2.29-6.79-7.2,0-2.97,1.3-15.82,1.3-18.5,0-3.31-.65-5.25-2.7-5.25s-6.09,2.74-11.26,9.59c-.09,6.74.19,13.82.84,20.5.05.63.46,3.31.46,3.89,0,1.88-1.44,2.56-2.18,2.56-1.35,0-3.53-1.54-3.53-4.45,0-.68.18-3.48.18-4.11,0-.17,0-3.88-.79-7.6-.93,2.68-2.23,6.22-2.83,8-.56,1.59-1.12,2.4-2.1,2.4-2.79,0-2.79-3.2-2.79-4.28,0-1.77.14-1.89,1.44-3.71.84-1.09,3.63-6.11,4.51-8.22-.28-.97-1.81-5.08-2.09-5.94-.51-1.6-.6-2.51-.6-3.71,0-2.57.19-4.91,6.79-8.91.09-5.03.14-9.65-2.98-9.42,1.68-1.43,2.42-2.06,3.63-2.06.88,0,4.18.8,4.18,5.54,0,1.43-.19,2.63-.7,5.37,2.23.74,2.37,2.91,2.37,3.31,0,.63-.09.8-1.12,2.68-1.3,2.45-1.53,3.08-2.6,5.42,0,.68,0,.8-.05,1.09.19-.18,7.9-11.48,13.54-11.48,2.93,0,6.14,3.25,6.14,8.16,0,2.05-.09,2.74-.98,9.13-.65,4.85-.75,6.28-.75,7.65,0,1.89,0,3.83,3.3,3.83,4.37,0,6.7-4.06,7.3-5.25l.09.06Zm-31.44-17.7c-.46.06-2.14,1.14-3.3,2.17-1.21,1.08-1.63,1.83-1.63,3.37,0,1.71.56,3.94,1.12,6.11,2.6-4.17,3.67-8.79,3.81-9.36v-2.29Zm-2,17.3c.1.51.51,1.89.61,2.34.18.8.28,1.2.51,1.2.42,0,.51-1.26.56-1.71.05-.52.14-5.71.14-6.74l-1.82,4.91Z"/>
        <path class="cls-52" d="m177.7,42.28c.37.57.56.57,2.14.68,1.25.06,2.23.74,2.23,2.51,0,2.68-2.46,4.11-7.72,6.4-.75,6.51-.98,7.94-1.35,9.76.75-1.02,3.91-5.71,4.61-6.57,5.67-7.36,9.9-8.05,12.6-8.05,5.3,0,8.65,2.91,8.65,6.4,0,1.66-.98,3.26-2.42,3.26-.37,0-.56-.06-.89-.23-1.86-.8-2.32-1.03-3.16-1.03-1.72,0-2.97.74-6,2.62v-.23c1.07-1.03,2.93-2.91,2.93-4.34,0-.57-.37-2.23-3.39-2.23-3.72,0-9.44,3.14-13.9,17.02-1.59,4.91-2.47,8.28-3.26,13.36-.46,3.14-2.74,3.31-3.54,3.31-2,0-2.56-4.22-2.56-5.59,0-1.2.14-1.48,1.35-3.83,3.72-7.31,5.39-19.87,5.63-21.64-1.12.4-2.14.68-3.3.68-4.88,0-5.26-6.28-5.26-7.48,1.26,1.71,3.21,1.71,3.39,1.71,1.77,0,5.26-1.48,6.05-1.77.24-2.05.7-5.88.7-7.76,0-1.37,0-2.8-2.23-3.2.88-2.06,3.03-2.4,3.62-2.4,2.14,0,3.77,2.46,3.77,3.94,0,.63-.6,3.49-.75,4.11-.18,1.43-.23,1.66-.42,3.08,1.76-.97,2.05-1.25,2.28-2.51h.18Zm2.89,29.98c0,2.51,1.21,4.97,5.03,4.97,1.07,0,3.67-.23,6.04-.74.24-.05,3.07-.69,3.26-.69,1.81,0,2.93,2.4,2.93,4.35,0,3.25-3.4,4.05-8.18,4.05-5.54,0-10.56-.51-10.56-8.45,0-4.85,1.91-8.68,2.66-10.16-1.17,4.11-1.17,6.34-1.17,6.68Z"/>
        <path class="cls-52" d="m338.32,42.33c.93,0,5.67-1.31,6.7-1.54,5.53-1.26,11.02-2.28,16.61-3.14,1.58-.23,1.62-.28,3.48-1.37.28-.17.46-.29.7-.29.69,0,6.37,1.89,6.37,5.2,0,1.08-.65,2.57-2.09,2.57-.61,0-.79-.06-2.7-.57-1.91-.45-3.44-.57-4.28-.57-5.62,0-7.53,3.88-8.28,5.42-1.58,3.26-2.74,9.82-2.74,16.11,0,9.99,3.86,11.13,8.74,12.56,1.54.46,3.39,1.03,3.39,3.83s-1.12,3.94-2.65,3.94c-.24,0-2.89-.11-6-1.54-5.3-2.4-7.91-6.56-7.91-15.99,0-10.1,3.54-19.58,8.84-23.69-3.82.34-10.38,2.85-13.81,4.74-2.05,1.09-2.37,1.2-3.16,1.2-2.98,0-4.93-3.26-4.93-6.57,0-.58,0-2.17.65-3.32.42,1.43.93,3.03,3.07,3.03Zm30.79,16.34c0,1.43-.79,2.68-1.86,2.68s-1.44-.68-2.37-2.85c-1.44-3.2-3.07-4.57-4.23-5.54,3.91.06,8.46,2.23,8.46,5.71Zm-2.24-11.25c4.38,0,6.93,2.06,6.93,4.74,0,1.6-1.12,2.46-1.81,2.46-.75,0-.88-.23-2.28-2.34-.79-1.2-3.12-3.94-5.58-4.62,1.02-.11,1.72-.23,2.74-.23Z"/>
        <g>
          <path class="cls-1" d="m329.59,47.4c-.3,0-.44.27-.87,1.06l-3.85,6.57h-16.26v-9.23h19.02c.37,0,.88,0,.88-.62,0-1.16-6.39-6.74-6.75-6.74-.22,0-.22.09-.87,1.06l-3.42,5.24h-8.86v-8.96h24.03c.43,0,.95,0,.95-.62,0-1.07-6.83-7.37-7.27-7.37-.22,0-.72.71-.94,1.07l-3.63,5.86h-11.18c2.4-1.87,5.37-4.71,8.64-8.34,2.18-.18,2.4-.18,2.4-.89,0-.98-5.67-4.17-6.75-4.79h20.77c.43,0,.95,0,.95-.53,0-1.51-6.39-8.08-6.76-8.08-.22,0-.29.08-.87,1.06l-3.99,6.57h-8.94c3.85-2.49,8.21-6.3,12.2-11.27.51.08,2.62.26,2.62-.71,0-1.07-4.8-3.1-10.17-5.42-1.89,7.37-3.55,12.96-5.45,17.39h-1.23V3.46c1.89-.62,1.89-.97,1.89-1.33,0-.53-.36-.62-.73-.71-.29-.08-2.1-.53-9.15-1.42v19.7h-4.72V3.73c1.96-.71,1.96-1.07,1.96-1.42,0-.62-.5-.71-1.16-.8-1.45-.27-4.21-.8-8.79-1.33v19.53h-21.27l.36.98h14.67c.95,1.16,2.62,3.02,3.78,8.97.14.8.57,4.44.72,5.06h-17.21l.36,1.07h24.91v8.96h-21.21l.36,1.06h20.85v9.23h-29.27l.36.97h21.42c-2.03,4.08-8.64,15.35-21.06,24.05l.14.36c12.73-3.8,22.51-10.94,28.4-18.73v24.93l8.78-16.55.22-14.05h.15c2.25,8.25,5.81,13.22,8.64,16.24,5.3,5.5,11.25,8.17,12.13,8.17,1.52,0,1.74-1.51,2.03-3.37.65-4.88,3.56-6.38,5.01-7.19v-.18c-13.58-1.69-23.02-7.63-27.09-13.67h27.23c.43,0,.94,0,.94-.62,0-.98-7.69-7.99-8.06-7.99Zm-21.35-12.69h-10.09c1.45-1.42,1.52-3.55,1.52-3.91,0-4.62-4.72-8.7-10.53-10.12h22.15c-.58,5.5-1.74,9.41-3.05,14.03Z"/>
          <path class="cls-7" d="m286.02,18.99c1.31,0,4.72-.44,4.72-5.5,0-7.9-9.88-9.32-12.85-9.76l-.07.26c2.83,3.2,4.72,7.9,5.3,12.52.22,1.42.29,2.48,2.9,2.48Z"/>
        </g>
        <g>
          <path class="cls-8" d="m257.56,6.47c1.88,5.6,1.88,8.88,1.88,15.89,0,1.24,0,2.84,2.47,2.84,4.5,0,5.3-4.26,5.3-6.12,0-4.08-3.19-8.97-9.44-12.87l-.22.26Z"/>
          <path class="cls-3" d="m238.47,69.77c0,1.24,0,1.51.87,1.42l4.94-.53c1.09-.09,1.09-1.34,1.09-1.95v-20.33c2.47-1.42,2.68-1.51,2.68-2.4,0-1.69-6.68-6.74-6.74-6.74-.15,0-.22.09-.95,1.15l-2.18,3.29h-3.7c-3.05-1.15-4.21-1.42-7.62-2.31l.18,45.25,6.73-12.14.13-6.74h4.58v2.04Zm-4.58-25.12h4.58v10.03h-4.58v-10.03Zm0,22.01v-10.92h4.58v10.92h-4.58Z"/>
          <path class="cls-4" d="m260.47,38.79c-1.75,5.86-2.54,8.07-3.13,9.67-.65-4.53-.95-9.67-1.08-12.87h12.34c.29,0,.72,0,.72-.62,0-.97-6.39-8.34-6.68-8.34s-.51.44-.8,1.07l-3.27,6.83h-2.32c-.08-2.3-.15-7.46-.15-9.5,0-1.16.15-18.37.15-20.15.57-.18,1.88-.53,1.88-1.42,0-.62-.29-.71-1.38-.97-.37-.09-7.48-1.24-8.93-1.51v12.16c-3.12-3.29-3.49-3.64-3.7-3.64s-.29.09-.94,1.06l-2.69,4.17h-.8V4.08c.87-.27,2.32-.8,2.32-1.51,0-.35-.22-.44-1.16-.61,0,0-7.99-1.16-8.93-1.33v14.11h-7.36v-5.73h-.27v-.93h4.65c.44,0,.95,0,.95-.53,0-.98-5.74-6.48-6.1-6.48-.15,0-.43.44-.94,1.16l-3.49,4.88h-17.07l.3.97h3.41v51.3l-3.71.62c.66,3.56,1.82,8.7,2.83,11.89,4.57-3.63,7.77-6.48,11.76-10.38v25.1l7.68-14.48v-36.54h23.69c.65,13.31,1.89,20.85,3.2,26.36-2.03,3.81-5.88,10.39-15.1,19.79l.15.18c5.81-2.93,11.33-6.66,16.99-13.05,1.45,4.36,6.03,14.03,10.97,14.03,1.52,0,4.43-1.16,4.43-5.06,0-.62-.07-1.42-.72-3.29q-1.09-3.27-1.09-4.26c0-2.93,1.89-14.29,2.03-14.82l-.29-.09c-2.69,6.66-4.36,11-5.66,11-1.89,0-3.27-4.79-3.56-5.76,2.83-4.54,5.01-8.88,7.33-13.77.43.09.8.18,1.23.18.14,0,1.16,0,1.16-.54,0-1.15-6.97-6.3-8.85-7.71Zm-47.2-30.72h3.63v15.72h-3.63v-15.72Zm0,16.78h3.63v15.53h-3.63v-15.53Zm0,33.46v-16.95h3.63v16.42l-3.63.53Zm11.3-23.79V15.71h23.26v3.9c-1.53-.53-6.03-2.04-9.15-2.84-.51,4.53-1.16,10.47-2.83,17.75h-11.28Zm13.09,0c2.25-3.01,5.95-8.61,8.64-13.31.94-.27,1.09-.36,1.53-.62,0,1.51.15,9.95.37,13.93h-10.53Z"/>
          <path class="cls-51" d="m226.85,16.95l-.14.09c1.52,4.36,1.67,8.34,1.67,13.85,0,1.51.58,2.13,2.25,2.13,1.96,0,4.5-1.33,4.5-5.24,0-6.57-6.1-9.67-8.27-10.83Z"/>
        </g>
        <rect class="cls-53" x="2.32" y="117.1" width="381.95" height="1.79"/>
        <rect class="cls-53" x="2.32" y="92.13" width="381.95" height="1.79"/>
        <polygon class="cls-49" points="386.59 113.54 8.28 113.54 0 97.63 378.31 97.63 386.59 113.54"/>
        <g>
          <path class="cls-54" d="m16.9,111.26v-2.25h-2.25v2.25h-2.25v-8.99h2.25v-2.25h2.25v2.25h2.25v8.99h-2.25Zm0-6.74h-2.25v2.25h2.25v-2.25Z"/>
          <path class="cls-54" d="m27.29,111.26v-4.5h-2.25v4.5h-2.25v-11.24h6.74v4.49h-2.25v2.25h2.25v4.5h-2.25Zm0-8.99h-2.25v2.25h2.25v-2.25Z"/>
          <path class="cls-54" d="m35.43,100.02v11.24h-2.25v-11.24h2.25Z"/>
          <path class="cls-54" d="m39.08,100.02h6.74v2.25h-4.49v2.25h4.49v2.25h-4.49v4.5h-2.25v-11.24Z"/>
          <path class="cls-54" d="m49.48,100.02h2.25v8.99h2.25v-8.99h2.25v11.24h-6.74v-11.24Z"/>
          <path class="cls-54" d="m64.37,111.26v-4.5h-2.25v4.5h-2.25v-11.24h6.74v4.49h-2.25v2.25h2.25v4.5h-2.25Zm0-8.99h-2.25v2.25h2.25v-2.25Z"/>
          <path class="cls-54" d="m70.26,100.02h6.74v2.25h-4.5v2.25h4.5v2.25h-4.5v2.25h4.5v2.25h-6.74v-11.24Z"/>
          <path class="cls-54" d="m80.66,100.02h6.74v2.25h-2.25v8.99h-2.25v-8.99h-2.25v-2.25Z"/>
          <path class="cls-54" d="m95.54,111.26v-2.25h-2.25v2.25h-2.25v-8.99h2.25v-2.25h2.25v2.25h2.25v8.99h-2.25Zm0-6.74h-2.25v2.25h2.25v-2.25Z"/>
          <path class="cls-54" d="m123.63,100.02v2.25h-4.49v2.25h4.49v6.74h-6.74v-2.25h4.5v-2.25h-4.5v-6.74h6.74Z"/>
          <path class="cls-54" d="m127.28,100.02h2.25v4.49h2.25v-4.49h2.25v11.24h-2.25v-4.5h-2.25v4.5h-2.25v-11.24Z"/>
          <path class="cls-54" d="m137.68,111.26v-11.24h6.74v11.24h-6.74Zm4.5-8.99h-2.25v6.74h2.25v-6.74Z"/>
          <path class="cls-54" d="m148.07,100.02h2.25v4.49h2.25v-4.49h2.25v4.49h-2.25v2.25h2.25v4.5h-2.25v-4.5h-2.25v4.5h-2.25v-11.24Z"/>
          <path class="cls-54" d="m158.46,100.02h2.25v8.99h2.24v-8.99h2.25v11.24h-6.74v-11.24Z"/>
          <path class="cls-54" d="m168.85,100.02h6.74v2.25h-4.5v6.74h2.25v-4.5h2.25v6.74h-6.74v-11.24Z"/>
          <path class="cls-54" d="m179.25,100.01l2.25.02v4.49h2.25v-4.49h2.25v6.74h-2.25v4.5h-2.25v-4.5h-2.25v-6.76Z"/>
          <path class="cls-54" d="m189.64,111.26v-11.24h6.74v11.24h-6.74Zm4.5-8.99h-2.25v6.74h2.25v-6.74Z"/>
          <path class="cls-54" d="m200.03,100.02h2.25v8.99h2.25v-8.99h2.25v11.24h-6.74v-11.24Z"/>
          <path class="cls-54" d="m225.87,100.02h4.5v2.25h2.25v8.99h-6.74v-11.24Zm2.25,2.25v6.74h2.25v-6.74h-2.25Z"/>
          <path class="cls-54" d="m236.27,100.02h6.74v2.25h-4.5v2.25h4.5v2.25h-4.5v2.25h4.5v2.25h-6.74v-11.24Z"/>
          <path class="cls-54" d="m268.85,100.02v2.25h-4.5v2.25h4.5v6.74h-6.74v-2.25h4.5v-2.25h-4.5v-6.74h6.74Z"/>
          <path class="cls-54" d="m272.5,100.02h6.74v2.25h-4.5v2.25h4.5v2.25h-4.5v2.25h4.5v2.25h-6.74v-11.24Z"/>
          <path class="cls-54" d="m282.9,100.02h2.25v4.49h2.25v-4.49h2.25v4.49h-2.25v2.25h2.25v4.5h-2.25v-4.5h-2.25v4.5h-2.25v-11.24Z"/>
          <path class="cls-54" d="m297.78,111.26v-2.25h-2.25v2.25h-2.25v-8.99h2.25v-2.25h2.25v2.25h2.25v8.99h-2.25Zm0-6.74h-2.25v2.25h2.25v-2.25Z"/>
          <path class="cls-54" d="m305.93,100.02v11.24h-2.25v-11.24h2.25Z"/>
          <path class="cls-54" d="m316.33,100.02v2.25h-4.5v2.25h4.5v6.74h-6.74v-2.25h4.5v-2.25h-4.5v-6.74h6.74Z"/>
          <path class="cls-54" d="m324.47,111.26v-2.25h-2.25v2.25h-2.25v-8.99h2.25v-2.25h2.25v2.25h2.25v8.99h-2.25Zm0-6.74h-2.25v2.25h2.25v-2.25Z"/>
          <path class="cls-54" d="m332.62,100.02v11.24h-2.25v-11.24h2.25Z"/>
          <path class="cls-54" d="m336.26,100.02h2.25v4.49h2.25v-4.49h2.25v4.49h-2.25v2.25h2.25v4.5h-2.25v-4.5h-2.25v4.5h-2.25v-11.24Z"/>
          <path class="cls-54" d="m346.66,100.01l2.25.02v4.49h2.25v-4.49h2.25v6.74h-2.25v4.5h-2.25v-4.5h-2.25v-6.76Z"/>
          <path class="cls-54" d="m357.05,111.26v-11.24h6.74v11.24h-6.74Zm4.5-8.99h-2.25v6.74h2.25v-6.74Z"/>
          <path class="cls-54" d="m367.44,100.02h2.25v8.99h2.25v-8.99h2.25v11.24h-6.74v-11.24Z"/>
        </g>
      </g>
      <g>
        <path class="cls-50" d="m241.55,134.06l-1.6.32c-.96-1.37-3.2-4.53-8.47-4.53-2.56,0-3.52.98-3.52,1.97,0,1.05.69,1.79,6.29,3.65,5.43,1.82,7.62,3.16,7.62,5.72,0,3.2-3.52,5.37-8.1,5.37-.48,0-1.49-.04-3.14-.28-.37-.07-2.72-.42-2.98-.42-1.12,0-2.45.42-3.25.7l-2.72-5.55,1.97-.49c3.36,4.57,8.85,4.57,9.65,4.57,1.92,0,3.94-.81,3.94-2.35,0-1.2-.69-1.79-6.29-3.72-4.58-1.55-7.51-3.05-7.51-5.69s2.98-4.71,7.14-4.71c.59,0,1.28,0,2.98.35,1.49.28,1.92.32,2.5.32,1.81,0,2.56-.35,3.09-.67l2.4,5.44Z"/>
        <path class="cls-45" d="m268.62,142.03c-1.38,1.48-4.21,4.53-10.71,4.53-7.2,0-11.67-3.69-11.67-8.53s4.85-9.41,11.72-9.41c2.77,0,9.86.99,10.44,8.39h-15.72c-.05,1.33.11,7.58,7.25,7.58,3.68,0,5.86-1.86,7.41-3.27l1.28.7Zm-6.71-6.14c-.11-2.63-.21-6.01-4.05-6.01-4.53,0-4.9,4.18-5.12,6.01h9.16Z"/>
        <path class="cls-46" d="m300.16,144.21c-2.24,2.35-5.76,2.35-6.56,2.35-3.41,0-4.1-1.23-4.58-2.04-2.34,1.3-5.27,2.04-8.31,2.04-3.84,0-7.14-1.2-7.14-3.93,0-4.91,10.44-6.22,15.19-6.81v-3.72c0-1.16-.85-2.56-3.36-2.56-.75,0-3.73.21-3.73,1.33,0,.18.11,1.02.11,1.23,0,1.86-1.87,2.6-3.41,2.6-1.81,0-3.41-.84-3.41-2.25,0-3.83,10.28-3.83,11.03-3.83,8.42,0,8.74,2.39,8.74,4.15v9.51c0,1.75.43,2.42,2.18,2.42,1.12,0,1.97-.32,2.61-.74l.64.25Zm-11.41-7.41c-4.53.95-9.27,2.07-9.27,5.23,0,2.7,3.73,2.81,4.53,2.81,1.07,0,3.2-.25,4.74-1.23v-6.81Z"/>
        <path class="cls-48" d="m322.43,134.06l-1.6.32c-.96-1.37-3.2-4.53-8.47-4.53-2.56,0-3.52.98-3.52,1.97,0,1.05.69,1.79,6.29,3.65,5.43,1.82,7.62,3.16,7.62,5.72,0,3.2-3.52,5.37-8.1,5.37-.48,0-1.49-.04-3.14-.28-.37-.07-2.72-.42-2.98-.42-1.12,0-2.45.42-3.25.7l-2.72-5.55,1.97-.49c3.36,4.57,8.85,4.57,9.65,4.57,1.92,0,3.94-.81,3.94-2.35,0-1.2-.69-1.79-6.29-3.72-4.58-1.55-7.51-3.05-7.51-5.69s2.99-4.71,7.14-4.71c.59,0,1.28,0,2.98.35,1.49.28,1.92.32,2.5.32,1.81,0,2.56-.35,3.09-.67l2.4,5.44Z"/>
        <path class="cls-44" d="m327.7,137.57c0-4,3.84-8.96,12.47-8.96s12.47,4.92,12.47,8.96-3.78,8.99-12.47,8.99-12.47-5.02-12.47-8.99Zm18.28,0c0-6.6-2.29-7.94-5.86-7.94-3.84,0-5.7,1.83-5.7,7.97.05,6.36,2.03,7.94,5.76,7.94s5.81-1.51,5.81-7.97Z"/>
        <path class="cls-47" d="m356.79,129.78l9.81-1.16v2.81c2.08-1.51,4.21-2.81,7.94-2.81,4.63,0,6.39,2.36,6.39,4.78v9.44c0,1.05.8,1.93,2.61,1.93h.85v1.13h-9.48v-12.08c0-1.33-.8-2.88-3.57-2.88-2.24,0-3.41.98-4.74,2.21v9.65c0,1.96,2.08,1.96,3.68,1.96v1.13h-13.16v-1.13h.85c1.81,0,2.61-.66,2.61-1.96v-10.67c0-.49-.27-1.62-1.97-1.62-.43,0-.64.04-1.49.18l-.32-.91Z"/>
      </g>
    </g>
  </g>
</svg>