<?xml version="1.0" encoding="UTF-8"?>
<svg id="_レイヤー_2" data-name="レイヤー 2" xmlns="http://www.w3.org/2000/svg" viewBox="0 0 279.34 95.84">
  <defs>
    <style>
      .cls-1 {
        fill: #fff;
        stroke-width: 0px;
      }
    </style>
  </defs>
  <g id="_レイヤー_1-2" data-name="レイヤー 1">
    <g>
      <path class="cls-1" d="m63.09,58.82c-.73,1.93-1.69,3.62-2.89,5.08-1.19,1.46-2.52,2.7-3.98,3.73-1.46,1.03-2.92,1.81-4.38,2.34-2.52.93-5.34,1.49-8.46,1.69s-6.14.3-9.06.3H0v-1c1.66-.26,3.23-.7,4.73-1.29,1.49-.6,2.7-1.43,3.63-2.49.33-.4.6-.98.8-1.74.2-.76.38-1.64.55-2.64.16-1,.28-2.04.35-3.13.07-1.09.1-2.17.1-3.23,0-.93.02-2.19.05-3.78.03-1.59.07-3.33.1-5.22s.05-3.83.05-5.82v-15.42c0-1.46-.02-2.95-.05-4.48-.03-1.53-.05-3.28-.05-5.27,0-1.19-.04-2.4-.1-3.63-.07-1.23-.18-2.4-.35-3.53-.17-1.13-.37-2.14-.6-3.04-.23-.9-.55-1.54-.95-1.94-1-1.06-1.99-1.77-2.99-2.14-.99-.36-2.39-.65-4.18-.85V.3h33.54c2.52,0,4.93.15,7.21.45,2.29.3,4.49.85,6.62,1.64,3.38,1.26,6.17,3.18,8.36,5.77,2.19,2.59,3.28,5.87,3.28,9.85,0,4.38-1.41,7.91-4.23,10.6-2.82,2.69-6.49,4.5-11,5.42v.4c2.39.27,4.74.85,7.06,1.74,2.32.9,4.39,2.11,6.22,3.63,1.82,1.53,3.28,3.33,4.38,5.42s1.64,4.46,1.64,7.12c0,2.39-.37,4.55-1.09,6.47ZM46.13,9.16c-1.69-2.59-3.8-4.44-6.32-5.57-2.99-1.33-6.8-1.99-11.44-1.99-1.39,0-2.65.07-3.78.2-1.13.13-1.99.3-2.59.5-.07.4-.13.76-.2,1.09-.07.33-.12.75-.15,1.24-.03.5-.07,1.11-.1,1.84-.03.73-.08,1.69-.15,2.89-.07,2.32-.12,4.88-.15,7.66-.03,2.79-.05,5.44-.05,7.96v9.55h5.57c1.53,0,2.75-.03,3.68-.1,5.97-.33,10.5-2.02,13.58-5.08,3.08-3.05,4.63-6.83,4.63-11.34,0-3.32-.85-6.27-2.54-8.86Zm5.47,38.86c-.63-1.69-1.49-3.25-2.59-4.68-1.09-1.43-2.39-2.65-3.88-3.68-1.49-1.03-3.13-1.84-4.93-2.44-1.46-.46-2.9-.78-4.33-.95-1.43-.16-3.1-.25-5.03-.25h-9.65v12.44c0,1.86.02,3.57.05,5.12.03,1.56.05,2.9.05,4.03.06,2.52.18,4.6.35,6.22.17,1.63.65,2.97,1.44,4.03.6.73,1.49,1.34,2.69,1.84,1.19.5,2.92.75,5.17.75,1.92,0,4.01-.13,6.27-.4,2.26-.26,4.45-.96,6.57-2.09,2.79-1.46,4.94-3.4,6.47-5.82,1.53-2.42,2.29-5.32,2.29-8.71,0-1.92-.32-3.73-.95-5.42Z"/>
      <path class="cls-1" d="m66.14,71.95v-1.09c3.05-.2,5.08-.51,6.07-.95,1-.43,1.49-1.18,1.49-2.24V10.45c0-.53-.05-.93-.15-1.19-.1-.26-.38-.56-.85-.9-.6-.33-1.49-.85-2.69-1.54-1.19-.7-2.19-1.21-2.98-1.54v-.6l14.23-4.68h.7v68.17c0,.66.15,1.16.45,1.49.3.33.75.56,1.34.7.6.13,1.36.22,2.29.25.93.03,2.02.12,3.28.25v1.09h-23.19Z"/>
      <path class="cls-1" d="m122.52,72.05h-.7v-10.05l-.1-.1c-.73,1.13-1.63,2.32-2.69,3.58-1.06,1.26-2.26,2.41-3.58,3.43-1.33,1.03-2.8,1.84-4.43,2.44-1.63.6-3.37.9-5.23.9-4.25,0-7.38-1.26-9.4-3.78-2.02-2.52-3.04-6.2-3.04-11.05v-25.38c0-.46-.03-.95-.1-1.44-.07-.5-.12-.96-.15-1.39-.04-.43-.12-.75-.25-.95-.27-.6-.65-1.03-1.14-1.29-.5-.26-1.04-.46-1.64-.6-.6-.13-1.23-.21-1.89-.25-.66-.03-1.29-.08-1.89-.15v-1.09h15.33v28.96c0,4.38.67,7.61,2,9.7s3.83,3.13,7.5,3.13c1.4,0,2.62-.18,3.65-.55,1.03-.36,1.97-.83,2.8-1.39.83-.56,1.6-1.21,2.3-1.94.7-.73,1.35-1.49,1.95-2.29v-28.36c0-.66-.07-1.51-.2-2.54-.13-1.03-.4-1.81-.8-2.34-.79-.33-1.88-.6-3.23-.8-1.36-.2-2.77-.36-4.23-.5v-1.09h16.72v39.31c0,.53.05.93.15,1.19.1.27.38.56.85.9.6.33,1.48.76,2.64,1.29,1.16.53,2.14.96,2.94,1.29v.6l-14.13,2.59Z"/>
      <path class="cls-1" d="m137.68,49.56v-6.97h22.99v6.97h-22.99Z"/>
      <path class="cls-1" d="m195.21,32.79c-.86.96-1.86,1.44-2.99,1.44-1.06,0-1.91-.18-2.54-.55-.63-.36-1.18-.78-1.64-1.24-.46-.46-.96-.88-1.49-1.24-.53-.36-1.26-.55-2.19-.55-.8,0-1.58.28-2.34.85-.76.56-1.48,1.28-2.14,2.14-.66.86-1.26,1.84-1.79,2.94-.53,1.09-1,2.14-1.39,3.13v28.66c.2.6.63,1.06,1.29,1.39.66.33,1.41.56,2.24.7.83.13,1.69.22,2.59.25.9.03,1.67.12,2.34.25v1h-22.29v-1c1.53-.13,2.84-.43,3.93-.9,1.1-.46,1.64-1.23,1.64-2.29v-33.64c0-.53-.05-.93-.15-1.19-.1-.26-.38-.56-.85-.9-.6-.33-1.29-.75-2.09-1.24-.8-.5-1.59-.91-2.39-1.24v-.6l13.04-5.08h.6l-.2,13.83h.2c.33-.8.86-1.96,1.59-3.48.73-1.53,1.66-3.07,2.79-4.63,1.13-1.56,2.49-2.9,4.08-4.03,1.59-1.13,3.42-1.69,5.47-1.69,1.66,0,3.07.5,4.23,1.49,1.16,1,1.74,2.26,1.74,3.78s-.43,2.67-1.29,3.63Z"/>
      <path class="cls-1" d="m239.08,65.88c-.53,1.19-1.23,2.27-2.09,3.23-.86.96-1.88,1.69-3.04,2.19-1.16.5-2.44.75-3.83.75-2.26,0-4.26-.66-6.02-1.99-1.76-1.33-2.64-3.65-2.64-6.97l-.2-.1c-.53.86-1.24,1.83-2.14,2.89-.89,1.06-1.96,2.06-3.18,2.99-1.23.93-2.59,1.68-4.08,2.24-1.49.56-3.13.85-4.93.85-1.06,0-2.14-.15-3.23-.45-1.09-.3-2.09-.83-2.99-1.59-.9-.76-1.63-1.74-2.19-2.94-.56-1.19-.85-2.65-.85-4.38,0-1.86.75-3.65,2.24-5.37,1.49-1.72,3.33-3.28,5.52-4.68s4.13-2.59,5.82-3.58c1.69-1,3.17-1.84,4.43-2.54,1.26-.7,2.37-1.29,3.33-1.79.96-.5,1.77-.95,2.44-1.34v-10.25c0-.13-.12-.45-.35-.95-.23-.5-.63-1.01-1.19-1.54-.56-.53-1.34-1.01-2.34-1.44-1-.43-2.29-.65-3.88-.65-1.06,0-2.11.18-3.14.55-1.03.37-1.94.83-2.74,1.39-.8.56-1.43,1.13-1.89,1.69-.46.56-.7,1.04-.7,1.44v4.48c0,.93-.48,1.76-1.44,2.49-.96.73-2.01,1.09-3.13,1.09-1.06,0-1.97-.38-2.74-1.14-.76-.76-1.14-1.64-1.14-2.64,0-.8.2-1.53.6-2.19.4-.66.9-1.26,1.49-1.79.6-.53,1.24-1,1.94-1.39.7-.4,1.31-.76,1.84-1.09,1.72-1,3.48-1.96,5.27-2.89,1.79-.93,3.5-1.72,5.12-2.39,1.62-.66,3.12-1.19,4.48-1.59,1.36-.4,2.47-.6,3.33-.6,1.72,0,3.35.45,4.88,1.34,1.53.9,2.62,2.01,3.28,3.33.26.46.43,1.28.5,2.44.07,1.16.1,2.31.1,3.43,0,2.39-.02,4.54-.05,6.47-.03,1.92-.05,3.78-.05,5.57s-.02,3.63-.05,5.52c-.03,1.89-.05,3.96-.05,6.22,0,2.99.51,4.96,1.54,5.92,1.03.96,2.21,1.44,3.53,1.44,1.53,0,2.65-.31,3.38-.95.73-.63,1.23-1.44,1.49-2.44h.6c-.07,1.26-.37,2.49-.9,3.68Zm-17.61-21c-1.2.86-2.69,1.78-4.48,2.74-1.79.96-3.53,2.01-5.22,3.13-1.69,1.13-3.15,2.37-4.38,3.73-1.23,1.36-1.84,2.9-1.84,4.63s.6,3.28,1.79,4.68c1.2,1.39,2.75,2.09,4.68,2.09,1.72,0,3.25-.2,4.58-.6,1.33-.4,2.55-1.16,3.68-2.29.8-.73,1.2-1.66,1.2-2.79v-15.33Z"/>
      <path class="cls-1" d="m277.01,26.17c-.76.07-1.49.23-2.19.5-.7.27-1.31.68-1.84,1.24-.53.56-.96,1.38-1.29,2.44-.33,1.06-.86,2.75-1.59,5.08-.73,2.32-1.59,5.06-2.59,8.21-1,3.15-2.09,6.62-3.29,10.4-1.19,3.78-2.41,7.66-3.63,11.64-1.23,3.98-2.46,7.93-3.68,11.84-1.23,3.91-2.41,7.63-3.53,11.15-.79,2.52-1.92,4.34-3.38,5.47-1.46,1.13-2.95,1.69-4.48,1.69-1.33,0-2.55-.42-3.68-1.26-1.13-.84-1.69-1.93-1.69-3.27s.4-2.45,1.19-3.32c.8-.87,1.86-1.31,3.18-1.31s2.44.4,3.33,1.21c.9.8,1.81,1.64,2.74,2.51h.2c.73-1.79,1.38-3.56,1.94-5.32.56-1.76,1.06-3.35,1.49-4.77.43-1.43.78-2.64,1.05-3.63.26-1,.43-1.66.5-1.99-.13-.27-.5-1.21-1.09-2.83-.6-1.62-1.36-3.71-2.29-6.26-.93-2.55-1.99-5.42-3.19-8.6-1.19-3.18-2.41-6.45-3.63-9.79-1.23-3.35-2.44-6.64-3.63-9.89-1.2-3.25-2.29-6.23-3.29-8.95-.6-.66-1.31-1.19-2.14-1.59-.83-.4-2.37-.66-4.63-.8v-1.09h21.7v1.09c-1.39.2-2.6.46-3.63.8-1.03.33-1.54,1.13-1.54,2.39,0,.33.2,1.14.6,2.44.4,1.29.93,2.9,1.59,4.83.66,1.93,1.41,4.03,2.24,6.32.83,2.29,1.66,4.6,2.49,6.92.83,2.32,1.64,4.56,2.44,6.72.8,2.16,1.49,4.03,2.09,5.62.2-.53.56-1.66,1.1-3.38.53-1.72,1.16-3.76,1.89-6.12.73-2.35,1.49-4.83,2.29-7.41.8-2.59,1.53-5.03,2.19-7.31.66-2.29,1.21-4.25,1.64-5.87.43-1.62.65-2.64.65-3.04,0-.6-.17-1.08-.5-1.44-.33-.36-.78-.65-1.34-.85-.56-.2-1.18-.33-1.84-.4-.66-.07-1.29-.13-1.89-.2v-1.09h15.33v1.09c-.8.07-1.58.13-2.34.2Z"/>
    </g>
  </g>
</svg>